P3
3 2
255
14 12 13
17 15 16
20 18 19
23 21 22
26 24 25
29 27 28
